
<?xml version="1.0" encoding="UTF-8"?>
<svg width="1440px" height="450px" viewBox="0 0 1440 450" version="1.1" xmlns="http://www.w3.org/2000/svg" xmlns:xlink="http://www.w3.org/1999/xlink">
    <!-- Generator: Sketch 52.6 (67491) - http://www.bohemiancoding.com/sketch -->
    <title>Desktop HD</title>
    <desc>Created with Sketch.</desc>
    <defs>
        <polygon id="path-1" points="0 0 399 0 399 295 0 295"></polygon>
        <polygon id="path-3" points="0.00842158056 0.161708594 11.6934879 0.161708594 11.6934879 8.04873837 0.00842158056 8.04873837"></polygon>
        <polygon id="path-5" points="0.00842158056 0.227021946 11.6934879 0.227021946 11.6934879 8.11405172 0.00842158056 8.11405172"></polygon>
        <polygon id="path-7" points="0.00842158056 0.0642472928 11.6934879 0.0642472928 11.6934879 8.17662077 0.00842158056 8.17662077"></polygon>
        <polygon id="path-9" points="0.00842158056 0.131450387 11.6934879 0.131450387 11.6934879 8.24382387 0.00842158056 8.24382387"></polygon>
        <polygon id="path-11" points="0.00842158056 0.193135328 11.6934879 0.193135328 11.6934879 8.0801651 0.00842158056 8.0801651"></polygon>
        <polygon id="path-13" points="0.00842158056 0.0293924862 11.6934879 0.0293924862 11.6934879 8.14176597 0.00842158056 8.14176597"></polygon>
        <polygon id="path-15" points="0.00842158056 0.0965719337 11.6934879 0.0965719337 11.6934879 8.20894541 0.00842158056 8.20894541"></polygon>
        <polygon id="path-17" points="0.00842158056 0.163775028 11.6934879 0.163775028 11.6934879 8.27614851 0.00842158056 8.27614851"></polygon>
    </defs>
    <g id="Desktop-HD" stroke="none" stroke-width="1" fill="none" fill-rule="evenodd">
        <rect id="Rectangle" fill="#05D280" x="0" y="0" width="1440" height="450"></rect>
        <g id="Group-3" transform="translate(1063.000000, -54.000000)">
            <mask id="mask-2" fill="white">
                <use xlink:href="#path-1"></use>
            </mask>
            <g id="Clip-2"></g>
            <path d="M54.7663047,0 C-7.05366301,38.1488949 -30.5461039,147.67076 59.7125698,167.36081 C149.969389,187.049014 187.06174,348.257491 305.757265,276.882675 C424.45279,205.507859 396.015939,1.23120496 396.015939,1.23120496 L54.7663047,0 Z" id="Fill-1" fill="#04BF74" mask="url(#mask-2)"></path>
        </g>
        <g id="Group-17" transform="translate(1172.000000, -69.000000)" stroke="#F4F6F9">
            <path d="M161.067819,175.316991 C161.067819,166.442583 168.344113,159.248507 177.32162,159.248507 C186.295772,159.248507 193.572065,166.442583 193.572065,175.316991 C193.572065,184.191398 186.295772,191.385474 177.32162,191.385474 C168.344113,191.385474 161.067819,184.191398 161.067819,175.316991 Z" id="Stroke-1"></path>
            <path d="M138.177776,175.316991 C138.177776,153.943768 155.703293,136.61628 177.320781,136.61628 C198.938269,136.61628 216.462108,153.943768 216.462108,175.316991 C216.462108,196.690213 198.938269,214.016043 177.320781,214.016043 C155.703293,214.016043 138.177776,196.690213 138.177776,175.316991 Z" id="Stroke-3"></path>
            <path d="M115.289244,175.316991 C115.289244,141.444953 143.062305,113.985711 177.321452,113.985711 C211.580599,113.985711 239.351983,141.444953 239.351983,175.316991 C239.351983,209.189028 211.580599,236.64827 177.321452,236.64827 C143.062305,236.64827 115.289244,209.189028 115.289244,175.316991 Z" id="Stroke-5"></path>
            <path d="M92.3990332,175.316991 C92.3990332,128.946137 130.41964,91.3551422 177.320445,91.3551422 C224.221251,91.3551422 262.241858,128.946137 262.241858,175.316991 C262.241858,221.687844 224.221251,259.278839 177.320445,259.278839 C130.41964,259.278839 92.3990332,221.687844 92.3990332,175.316991 Z" id="Stroke-7"></path>
            <path d="M69.5089905,175.316991 C69.5089905,116.447322 117.77882,68.7229147 177.321284,68.7229147 C236.863749,68.7229147 285.1319,116.447322 285.1319,175.316991 C285.1319,234.186659 236.863749,281.911066 177.321284,281.911066 C117.77882,281.911066 69.5089905,234.186659 69.5089905,175.316991 Z" id="Stroke-9"></path>
            <path d="M46.6187801,175.316991 C46.6187801,103.948507 105.136155,46.092346 177.320278,46.092346 C249.506079,46.092346 308.023453,103.948507 308.023453,175.316991 C308.023453,246.685474 249.506079,304.541635 177.320278,304.541635 C105.136155,304.541635 46.6187801,246.685474 46.6187801,175.316991 Z" id="Stroke-11"></path>
            <path d="M23.7287374,175.316991 C23.7287374,91.4480332 92.4936569,23.4601185 177.321117,23.4601185 C262.146899,23.4601185 330.911818,91.4480332 330.911818,175.316991 C330.911818,259.184289 262.146899,327.172204 177.321117,327.172204 C92.4936569,327.172204 23.7287374,259.184289 23.7287374,175.316991 Z" id="Stroke-13"></path>
            <path d="M0.838527014,175.316991 C0.838527014,78.949218 79.8526692,0.829549763 177.32011,0.829549763 C274.787551,0.829549763 353.801693,78.949218 353.801693,175.316991 C353.801693,271.683104 274.787551,349.804431 177.32011,349.804431 C79.8526692,349.804431 0.838527014,271.683104 0.838527014,175.316991 Z" id="Stroke-15"></path>
        </g>
        <path d="M419.5,62.6378786 C419.5,134.806994 405.175974,163.045809 362.205805,178.735202 C319.235636,194.422503 319.235636,202.788087 319.235636,262.405688 C319.235636,322.021197 247.619324,317.841543 247.619324,401.512029 C247.619324,485.182515 182.280756,443.996813 183.054253,519.498355 C184.597428,670.311075 38.5,622.201121 38.5,622.201121 L44.2296105,59.5 L419.5,62.6378786 Z" id="Fill-25" fill="#04BF74" transform="translate(229.000000, 344.500000) rotate(-90.000000) translate(-229.000000, -344.500000) "></path>
        <g id="Group" transform="translate(118.000000, 241.000000)">
            <g id="Group-137">
                <path d="M11.6684335,0.144503151 C11.5718348,0.0482481307 11.4359624,0 11.2986264,0 L0.519333838,0 C0.381997811,0 0.246369336,0.0482481307 0.149526703,0.144503151 C-0.0334253761,0.327122326 -0.0458661175,0.601654189 0.0978122483,0.795370434 L1.12795442,2.18274543 L4.40499205,6.59696691 L5.50002123,8.07167102 C5.59540025,8.20049353 5.74761637,8.27624309 5.90910208,8.27624309 C6.07083171,8.27624309 6.22255997,8.20049353 6.31818292,8.07167102 L11.7203919,0.795370434 C11.8640703,0.601654189 11.8516295,0.327122326 11.6684335,0.144503151" id="Fill-1" fill="#E5E9F2"></path>
                <path d="M41.2138878,0.144503151 C41.1172889,0.0482481307 40.9814162,0 40.8440799,0 L30.064767,0 C29.9274307,0 29.791802,0.0482481307 29.6952031,0.144503151 C29.5120068,0.327122326 29.499566,0.601654189 29.6432446,0.795370434 L30.6733888,2.18274543 L33.9504326,6.59696691 L35.0454638,8.07167102 C35.140843,8.20049353 35.2930594,8.27624309 35.4547894,8.27624309 C35.6162754,8.27624309 35.7680039,8.20049353 35.8636271,8.07167102 L41.2658463,0.795370434 C41.4095249,0.601654189 41.3970841,0.327122326 41.2138878,0.144503151" id="Fill-3" fill="#E5E9F2"></path>
                <path d="M70.7593423,0.144503151 C70.6627434,0.0482481307 70.5268708,0 70.3897784,0 L59.6102216,0 C59.4728853,0 59.3372566,0.0482481307 59.2406577,0.144503151 C59.0574613,0.327122326 59.0450206,0.601654189 59.1886992,0.795370434 L60.2188433,2.18274543 L63.4958871,6.59696691 L64.5909184,8.07167102 C64.6862976,8.20049353 64.838514,8.27624309 65.0002439,8.27624309 C65.1617299,8.27624309 65.3134585,8.20049353 65.4090816,8.07167102 L70.8113008,0.795370434 C70.9549794,0.601654189 70.9425387,0.327122326 70.7593423,0.144503151" id="Fill-5" fill="#E5E9F2"></path>
                <path d="M101.486615,0.144503151 C101.390016,0.0482481307 101.254144,0 101.117051,0 L90.3374943,0 C90.200158,0 90.0645293,0.0482481307 89.9679304,0.144503151 C89.784734,0.327122326 89.7722933,0.601654189 89.9159719,0.795370434 L90.946116,2.18274543 L94.2231599,6.59696691 L95.3181911,8.07167102 C95.4135703,8.20049353 95.5657867,8.27624309 95.7275167,8.27624309 C95.8890027,8.27624309 96.0407312,8.20049353 96.1363543,8.07167102 L101.538574,0.795370434 C101.682252,0.601654189 101.669811,0.327122326 101.486615,0.144503151" id="Fill-7" fill="#E5E9F2"></path>
                <path d="M131.03207,0.144503151 C130.935471,0.0482481307 130.799598,0 130.662506,0 L119.882949,0 C119.745613,0 119.609984,0.0482481307 119.513385,0.144503151 C119.330189,0.327122326 119.317748,0.601654189 119.461426,0.795370434 L120.491571,2.18274543 L123.768614,6.59696691 L124.863646,8.07167102 C124.959269,8.20049353 125.111241,8.27624309 125.272971,8.27624309 C125.434457,8.27624309 125.586186,8.20049353 125.681809,8.07167102 L131.084028,0.795370434 C131.227707,0.601654189 131.215266,0.327122326 131.03207,0.144503151" id="Fill-9" fill="#E5E9F2"></path>
                <path d="M160.577524,0.144503151 C160.480925,0.0482481307 160.345053,0 160.20796,0 L149.428403,0 C149.291067,0 149.155438,0.0482481307 149.058839,0.144503151 C148.875643,0.327122326 148.863202,0.601654189 149.006881,0.795370434 L150.037025,2.18274543 L153.314069,6.59696691 L154.4091,8.07167102 C154.504479,8.20049353 154.656696,8.27624309 154.818426,8.27624309 C154.979912,8.27624309 155.131884,8.20049353 155.227263,8.07167102 L160.629483,0.795370434 C160.773161,0.601654189 160.760721,0.327122326 160.577524,0.144503151" id="Fill-11" fill="#E5E9F2"></path>
                <path d="M191.304797,0.144503151 C191.208198,0.0482481307 191.072569,0 190.935233,0 L180.155676,0 C180.01834,0 179.882711,0.0482481307 179.786112,0.144503151 C179.602916,0.327122326 179.590475,0.601654189 179.734154,0.795370434 L180.764298,2.18274543 L184.041342,6.59696691 L185.136373,8.07167102 C185.231752,8.20049353 185.383969,8.27624309 185.545698,8.27624309 C185.707184,8.27624309 185.859157,8.20049353 185.954536,8.07167102 L191.356755,0.795370434 C191.500434,0.601654189 191.487993,0.327122326 191.304797,0.144503151" id="Fill-13" fill="#E5E9F2"></path>
                <g id="Group-17" transform="translate(209.181818, 0.000000)">
                    <mask id="mask-4" fill="white">
                        <use xlink:href="#path-3"></use>
                    </mask>
                    <g id="Clip-16"></g>
                    <path d="M11.5454712,0.299416083 C11.449961,0.207687723 11.3156197,0.161708594 11.1798312,0.161708594 L0.522001855,0.161708594 C0.386213358,0.161708594 0.252113173,0.207687723 0.156361781,0.299416083 C-0.024528757,0.473447084 -0.0370705009,0.735068324 0.105230056,0.919674524 L1.12352319,2.24180436 L1.12376438,2.24180436 L4.3638757,6.44843481 L5.44656586,7.85378686 C5.54087013,7.97655114 5.69137106,8.04873837 5.85103711,8.04873837 C6.01070315,8.04873837 6.16096289,7.97655114 6.25550835,7.85378686 L11.5968442,0.919674524 C11.7389035,0.735068324 11.726603,0.473447084 11.5454712,0.299416083" id="Fill-15" fill="#E5E9F2" mask="url(#mask-4)"></path>
                </g>
                <path d="M11.6684335,29.7025142 C11.5718348,29.6062592 11.4359624,29.558011 11.2986264,29.558011 L0.519333838,29.558011 C0.381997811,29.558011 0.246369336,29.6062592 0.149526703,29.7025142 C-0.0334253761,29.8851334 -0.0458661175,30.1596652 0.0978122483,30.3533815 L1.12795442,31.7407565 L4.40499205,36.154978 L5.50002123,37.6296821 C5.59540025,37.7585046 5.74761637,37.8342541 5.90910208,37.8342541 C6.07083171,37.8342541 6.22255997,37.7585046 6.31818292,37.6296821 L11.7203919,30.3533815 C11.8640703,30.1596652 11.8516295,29.8851334 11.6684335,29.7025142" id="Fill-18" fill="#E5E9F2"></path>
                <path d="M41.2138878,29.7025142 C41.1172889,29.6062592 40.9814162,29.558011 40.8440799,29.558011 L30.064767,29.558011 C29.9274307,29.558011 29.791802,29.6062592 29.6952031,29.7025142 C29.5120068,29.8851334 29.499566,30.1596652 29.6432446,30.3533815 L30.6733888,31.7407565 L33.9504326,36.154978 L35.0454638,37.6296821 C35.140843,37.7585046 35.2930594,37.8342541 35.4547894,37.8342541 C35.6162754,37.8342541 35.7680039,37.7585046 35.8636271,37.6296821 L41.2658463,30.3533815 C41.4095249,30.1596652 41.3970841,29.8851334 41.2138878,29.7025142" id="Fill-20" fill="#E5E9F2"></path>
                <path d="M70.7593423,29.7025142 C70.6627434,29.6062592 70.5268708,29.558011 70.3897784,29.558011 L59.6102216,29.558011 C59.4728853,29.558011 59.3372566,29.6062592 59.2406577,29.7025142 C59.0574613,29.8851334 59.0450206,30.1596652 59.1886992,30.3533815 L60.2188433,31.7407565 L63.4958871,36.154978 L64.5909184,37.6296821 C64.6862976,37.7585046 64.838514,37.8342541 65.0002439,37.8342541 C65.1617299,37.8342541 65.3134585,37.7585046 65.4090816,37.6296821 L70.8113008,30.3533815 C70.9549794,30.1596652 70.9425387,29.8851334 70.7593423,29.7025142" id="Fill-22" fill="#E5E9F2"></path>
                <path d="M101.486615,29.7025142 C101.390016,29.6062592 101.254144,29.558011 101.117051,29.558011 L90.3374943,29.558011 C90.200158,29.558011 90.0645293,29.6062592 89.9679304,29.7025142 C89.784734,29.8851334 89.7722933,30.1596652 89.9159719,30.3533815 L90.946116,31.7407565 L94.2231599,36.154978 L95.3181911,37.6296821 C95.4135703,37.7585046 95.5657867,37.8342541 95.7275167,37.8342541 C95.8890027,37.8342541 96.0407312,37.7585046 96.1363543,37.6296821 L101.538574,30.3533815 C101.682252,30.1596652 101.669811,29.8851334 101.486615,29.7025142" id="Fill-24" fill="#E5E9F2"></path>
                <path d="M131.03207,29.7025142 C130.935471,29.6062592 130.799598,29.558011 130.662506,29.558011 L119.882949,29.558011 C119.745613,29.558011 119.609984,29.6062592 119.513385,29.7025142 C119.330189,29.8851334 119.317748,30.1596652 119.461426,30.3533815 L120.491571,31.7407565 L123.768614,36.154978 L124.863646,37.6296821 C124.959269,37.7585046 125.111241,37.8342541 125.272971,37.8342541 C125.434457,37.8342541 125.586186,37.7585046 125.681809,37.6296821 L131.084028,30.3533815 C131.227707,30.1596652 131.215266,29.8851334 131.03207,29.7025142" id="Fill-26" fill="#E5E9F2"></path>
                <path d="M160.577524,29.7025142 C160.480925,29.6062592 160.345053,29.558011 160.20796,29.558011 L149.428403,29.558011 C149.291067,29.558011 149.155438,29.6062592 149.058839,29.7025142 C148.875643,29.8851334 148.863202,30.1596652 149.006881,30.3533815 L150.037025,31.7407565 L153.314069,36.154978 L154.4091,37.6296821 C154.504479,37.7585046 154.656696,37.8342541 154.818426,37.8342541 C154.979912,37.8342541 155.131884,37.7585046 155.227263,37.6296821 L160.629483,30.3533815 C160.773161,30.1596652 160.760721,29.8851334 160.577524,29.7025142" id="Fill-28" fill="#E5E9F2"></path>
                <path d="M191.304797,29.7025142 C191.208198,29.6062592 191.072569,29.558011 190.935233,29.558011 L180.155676,29.558011 C180.01834,29.558011 179.882711,29.6062592 179.786112,29.7025142 C179.602916,29.8851334 179.590475,30.1596652 179.734154,30.3533815 L180.764298,31.7407565 L184.041342,36.154978 L185.136373,37.6296821 C185.231752,37.7585046 185.383969,37.8342541 185.545698,37.8342541 C185.707184,37.8342541 185.859157,37.7585046 185.954536,37.6296821 L191.356755,30.3533815 C191.500434,30.1596652 191.487993,29.8851334 191.304797,29.7025142" id="Fill-30" fill="#E5E9F2"></path>
                <g id="Group-34" transform="translate(209.181818, 29.558011)">
                    <mask id="mask-6" fill="white">
                        <use xlink:href="#path-5"></use>
                    </mask>
                    <g id="Clip-33"></g>
                    <path d="M11.5454712,0.364729435 C11.449961,0.273001074 11.3156197,0.227021946 11.1798312,0.227021946 L0.522001855,0.227021946 C0.386213358,0.227021946 0.252113173,0.273001074 0.156361781,0.364729435 C-0.024528757,0.538760436 -0.0370705009,0.800381676 0.105230056,0.984987876 L1.12352319,2.30711771 L1.12376438,2.30711771 L4.3638757,6.51374816 L5.44656586,7.91910021 C5.54087013,8.04186449 5.69137106,8.11405172 5.85103711,8.11405172 C6.01070315,8.11405172 6.16096289,8.04186449 6.25550835,7.91910021 L11.5968442,0.984987876 C11.7389035,0.800381676 11.726603,0.538760436 11.5454712,0.364729435" id="Fill-32" fill="#E5E9F2" mask="url(#mask-6)"></path>
                </g>
                <path d="M11.6684335,60.4428457 C11.5718348,60.3465907 11.4359624,60.2983425 11.2986264,60.2983425 L0.519333838,60.2983425 C0.381997811,60.2983425 0.246369336,60.3465907 0.149526703,60.4428457 C-0.0334253761,60.6254649 -0.0458661175,60.8999967 0.0978122483,61.093713 L1.12795442,62.481088 L4.40499205,66.8953094 L5.50002123,68.3700136 C5.59540025,68.4988361 5.74761637,68.5745856 5.90910208,68.5745856 C6.07083171,68.5745856 6.22255997,68.4988361 6.31818292,68.3700136 L11.7203919,61.093713 C11.8640703,60.8999967 11.8516295,60.6254649 11.6684335,60.4428457" id="Fill-35" fill="#E5E9F2"></path>
                <path d="M41.2138878,60.4428457 C41.1172889,60.3465907 40.9814162,60.2983425 40.8440799,60.2983425 L30.064767,60.2983425 C29.9274307,60.2983425 29.791802,60.3465907 29.6952031,60.4428457 C29.5120068,60.6254649 29.499566,60.8999967 29.6432446,61.093713 L30.6733888,62.481088 L33.9504326,66.8953094 L35.0454638,68.3700136 C35.140843,68.4988361 35.2930594,68.5745856 35.4547894,68.5745856 C35.6162754,68.5745856 35.7680039,68.4988361 35.8636271,68.3700136 L41.2658463,61.093713 C41.4095249,60.8999967 41.3970841,60.6254649 41.2138878,60.4428457" id="Fill-37" fill="#E5E9F2"></path>
                <path d="M70.7593423,60.4428457 C70.6627434,60.3465907 70.5268708,60.2983425 70.3897784,60.2983425 L59.6102216,60.2983425 C59.4728853,60.2983425 59.3372566,60.3465907 59.2406577,60.4428457 C59.0574613,60.6254649 59.0450206,60.8999967 59.1886992,61.093713 L60.2188433,62.481088 L63.4958871,66.8953094 L64.5909184,68.3700136 C64.6862976,68.4988361 64.838514,68.5745856 65.0002439,68.5745856 C65.1617299,68.5745856 65.3134585,68.4988361 65.4090816,68.3700136 L70.8113008,61.093713 C70.9549794,60.8999967 70.9425387,60.6254649 70.7593423,60.4428457" id="Fill-39" fill="#E5E9F2"></path>
                <path d="M101.486615,60.4428457 C101.390016,60.3465907 101.254144,60.2983425 101.117051,60.2983425 L90.3374943,60.2983425 C90.200158,60.2983425 90.0645293,60.3465907 89.9679304,60.4428457 C89.784734,60.6254649 89.7722933,60.8999967 89.9159719,61.093713 L90.946116,62.481088 L94.2231599,66.8953094 L95.3181911,68.3700136 C95.4135703,68.4988361 95.5657867,68.5745856 95.7275167,68.5745856 C95.8890027,68.5745856 96.0407312,68.4988361 96.1363543,68.3700136 L101.538574,61.093713 C101.682252,60.8999967 101.669811,60.6254649 101.486615,60.4428457" id="Fill-41" fill="#E5E9F2"></path>
                <path d="M131.03207,60.4428457 C130.935471,60.3465907 130.799598,60.2983425 130.662506,60.2983425 L119.882949,60.2983425 C119.745613,60.2983425 119.609984,60.3465907 119.513385,60.4428457 C119.330189,60.6254649 119.317748,60.8999967 119.461426,61.093713 L120.491571,62.481088 L123.768614,66.8953094 L124.863646,68.3700136 C124.959269,68.4988361 125.111241,68.5745856 125.272971,68.5745856 C125.434457,68.5745856 125.586186,68.4988361 125.681809,68.3700136 L131.084028,61.093713 C131.227707,60.8999967 131.215266,60.6254649 131.03207,60.4428457" id="Fill-43" fill="#E5E9F2"></path>
                <path d="M160.577524,60.4428457 C160.480925,60.3465907 160.345053,60.2983425 160.20796,60.2983425 L149.428403,60.2983425 C149.291067,60.2983425 149.155438,60.3465907 149.058839,60.4428457 C148.875643,60.6254649 148.863202,60.8999967 149.006881,61.093713 L150.037025,62.481088 L153.314069,66.8953094 L154.4091,68.3700136 C154.504479,68.4988361 154.656696,68.5745856 154.818426,68.5745856 C154.979912,68.5745856 155.131884,68.4988361 155.227263,68.3700136 L160.629483,61.093713 C160.773161,60.8999967 160.760721,60.6254649 160.577524,60.4428457" id="Fill-45" fill="#E5E9F2"></path>
                <path d="M191.304797,60.4428457 C191.208198,60.3465907 191.072569,60.2983425 190.935233,60.2983425 L180.155676,60.2983425 C180.01834,60.2983425 179.882711,60.3465907 179.786112,60.4428457 C179.602916,60.6254649 179.590475,60.8999967 179.734154,61.093713 L180.764298,62.481088 L184.041342,66.8953094 L185.136373,68.3700136 C185.231752,68.4988361 185.383969,68.5745856 185.545698,68.5745856 C185.707184,68.5745856 185.859157,68.4988361 185.954536,68.3700136 L191.356755,61.093713 C191.500434,60.8999967 191.487993,60.6254649 191.304797,60.4428457" id="Fill-47" fill="#E5E9F2"></path>
                <g id="Group-51" transform="translate(209.181818, 60.298343)">
                    <mask id="mask-8" fill="white">
                        <use xlink:href="#path-7"></use>
                    </mask>
                    <g id="Clip-50"></g>
                    <path d="M11.5454712,0.205889282 C11.449961,0.11154011 11.3156197,0.0642472928 11.1798312,0.0642472928 L0.522001855,0.0642472928 C0.386213358,0.0642472928 0.252113173,0.11154011 0.156361781,0.205889282 C-0.024528757,0.384892597 -0.0370705009,0.653988729 0.105230056,0.843869392 L1.12352319,2.20377436 L1.12376438,2.20377436 L4.3638757,6.53059425 L5.44656586,7.97609923 C5.54087013,8.10237105 5.69137106,8.17662077 5.85103711,8.17662077 C6.01070315,8.17662077 6.16096289,8.10237105 6.25550835,7.97609923 L11.5968442,0.843869392 C11.7389035,0.653988729 11.726603,0.384892597 11.5454712,0.205889282" id="Fill-49" fill="#E5E9F2" mask="url(#mask-8)"></path>
                </g>
                <path d="M11.6684335,88.8185363 C11.5718348,88.7222813 11.4359624,88.6740331 11.2986264,88.6740331 L0.519333838,88.6740331 C0.381997811,88.6740331 0.246369336,88.7222813 0.149526703,88.8185363 C-0.0334253761,89.0011555 -0.0458661175,89.2756873 0.0978122483,89.4694036 L1.12795442,90.8567786 L4.40499205,95.2710001 L5.50002123,96.7457042 C5.59540025,96.8745267 5.74761637,96.9502762 5.90910208,96.9502762 C6.07083171,96.9502762 6.22255997,96.8745267 6.31818292,96.7457042 L11.7203919,89.4694036 C11.8640703,89.2756873 11.8516295,89.0011555 11.6684335,88.8185363" id="Fill-52" fill="#E5E9F2"></path>
                <path d="M41.2138878,88.8185363 C41.1172889,88.7222813 40.9814162,88.6740331 40.8440799,88.6740331 L30.064767,88.6740331 C29.9274307,88.6740331 29.791802,88.7222813 29.6952031,88.8185363 C29.5120068,89.0011555 29.499566,89.2756873 29.6432446,89.4694036 L30.6733888,90.8567786 L33.9504326,95.2710001 L35.0454638,96.7457042 C35.140843,96.8745267 35.2930594,96.9502762 35.4547894,96.9502762 C35.6162754,96.9502762 35.7680039,96.8745267 35.8636271,96.7457042 L41.2658463,89.4694036 C41.4095249,89.2756873 41.3970841,89.0011555 41.2138878,88.8185363" id="Fill-54" fill="#E5E9F2"></path>
                <path d="M70.7593423,88.8185363 C70.6627434,88.7222813 70.5268708,88.6740331 70.3897784,88.6740331 L59.6102216,88.6740331 C59.4728853,88.6740331 59.3372566,88.7222813 59.2406577,88.8185363 C59.0574613,89.0011555 59.0450206,89.2756873 59.1886992,89.4694036 L60.2188433,90.8567786 L63.4958871,95.2710001 L64.5909184,96.7457042 C64.6862976,96.8745267 64.838514,96.9502762 65.0002439,96.9502762 C65.1617299,96.9502762 65.3134585,96.8745267 65.4090816,96.7457042 L70.8113008,89.4694036 C70.9549794,89.2756873 70.9425387,89.0011555 70.7593423,88.8185363" id="Fill-56" fill="#E5E9F2"></path>
                <path d="M101.486615,88.8185363 C101.390016,88.7222813 101.254144,88.6740331 101.117051,88.6740331 L90.3374943,88.6740331 C90.200158,88.6740331 90.0645293,88.7222813 89.9679304,88.8185363 C89.784734,89.0011555 89.7722933,89.2756873 89.9159719,89.4694036 L90.946116,90.8567786 L94.2231599,95.2710001 L95.3181911,96.7457042 C95.4135703,96.8745267 95.5657867,96.9502762 95.7275167,96.9502762 C95.8890027,96.9502762 96.0407312,96.8745267 96.1363543,96.7457042 L101.538574,89.4694036 C101.682252,89.2756873 101.669811,89.0011555 101.486615,88.8185363" id="Fill-58" fill="#E5E9F2"></path>
                <path d="M131.03207,88.8185363 C130.935471,88.7222813 130.799598,88.6740331 130.662506,88.6740331 L119.882949,88.6740331 C119.745613,88.6740331 119.609984,88.7222813 119.513385,88.8185363 C119.330189,89.0011555 119.317748,89.2756873 119.461426,89.4694036 L120.491571,90.8567786 L123.768614,95.2710001 L124.863646,96.7457042 C124.959269,96.8745267 125.111241,96.9502762 125.272971,96.9502762 C125.434457,96.9502762 125.586186,96.8745267 125.681809,96.7457042 L131.084028,89.4694036 C131.227707,89.2756873 131.215266,89.0011555 131.03207,88.8185363" id="Fill-60" fill="#E5E9F2"></path>
                <path d="M160.577524,88.8185363 C160.480925,88.7222813 160.345053,88.6740331 160.20796,88.6740331 L149.428403,88.6740331 C149.291067,88.6740331 149.155438,88.7222813 149.058839,88.8185363 C148.875643,89.0011555 148.863202,89.2756873 149.006881,89.4694036 L150.037025,90.8567786 L153.314069,95.2710001 L154.4091,96.7457042 C154.504479,96.8745267 154.656696,96.9502762 154.818426,96.9502762 C154.979912,96.9502762 155.131884,96.8745267 155.227263,96.7457042 L160.629483,89.4694036 C160.773161,89.2756873 160.760721,89.0011555 160.577524,88.8185363" id="Fill-62" fill="#E5E9F2"></path>
                <path d="M191.304797,88.8185363 C191.208198,88.7222813 191.072569,88.6740331 190.935233,88.6740331 L180.155676,88.6740331 C180.01834,88.6740331 179.882711,88.7222813 179.786112,88.8185363 C179.602916,89.0011555 179.590475,89.2756873 179.734154,89.4694036 L180.764298,90.8567786 L184.041342,95.2710001 L185.136373,96.7457042 C185.231752,96.8745267 185.383969,96.9502762 185.545698,96.9502762 C185.707184,96.9502762 185.859157,96.8745267 185.954536,96.7457042 L191.356755,89.4694036 C191.500434,89.2756873 191.487993,89.0011555 191.304797,88.8185363" id="Fill-64" fill="#E5E9F2"></path>
                <g id="Group-68" transform="translate(209.181818, 88.674033)">
                    <mask id="mask-10" fill="white">
                        <use xlink:href="#path-9"></use>
                    </mask>
                    <g id="Clip-67"></g>
                    <path d="M11.5454712,0.273092376 C11.449961,0.178743204 11.3156197,0.131450387 11.1798312,0.131450387 L0.522001855,0.131450387 C0.386213358,0.131450387 0.252113173,0.178743204 0.156361781,0.273092376 C-0.024528757,0.452095691 -0.0370705009,0.721191823 0.105230056,0.911072486 L1.12352319,2.27097746 L1.12376438,2.27097746 L4.3638757,6.59779735 L5.44656586,8.04330232 C5.54087013,8.16957414 5.69137106,8.24382387 5.85103711,8.24382387 C6.01070315,8.24382387 6.16096289,8.16957414 6.25550835,8.04330232 L11.5968442,0.911072486 C11.7389035,0.721191823 11.726603,0.452095691 11.5454712,0.273092376" id="Fill-66" fill="#E5E9F2" mask="url(#mask-10)"></path>
                </g>
                <path d="M11.6684335,117.194227 C11.5718348,117.097972 11.4359624,117.049724 11.2986264,117.049724 L0.519333838,117.049724 C0.381997811,117.049724 0.246369336,117.097972 0.149526703,117.194227 C-0.0334253761,117.376846 -0.0458661175,117.651378 0.0978122483,117.845094 L1.12795442,119.232469 L4.40499205,123.646691 L5.50002123,125.121395 C5.59540025,125.250217 5.74761637,125.325967 5.90910208,125.325967 C6.07083171,125.325967 6.22255997,125.250217 6.31818292,125.121395 L11.7203919,117.845094 C11.8640703,117.651378 11.8516295,117.376846 11.6684335,117.194227" id="Fill-69" fill="#E5E9F2"></path>
                <path d="M41.2138878,117.194227 C41.1172889,117.097972 40.9814162,117.049724 40.8440799,117.049724 L30.064767,117.049724 C29.9274307,117.049724 29.791802,117.097972 29.6952031,117.194227 C29.5120068,117.376846 29.499566,117.651378 29.6432446,117.845094 L30.6733888,119.232469 L33.9504326,123.646691 L35.0454638,125.121395 C35.140843,125.250217 35.2930594,125.325967 35.4547894,125.325967 C35.6162754,125.325967 35.7680039,125.250217 35.8636271,125.121395 L41.2658463,117.845094 C41.4095249,117.651378 41.3970841,117.376846 41.2138878,117.194227" id="Fill-71" fill="#E5E9F2"></path>
                <path d="M70.7593423,117.194227 C70.6627434,117.097972 70.5268708,117.049724 70.3897784,117.049724 L59.6102216,117.049724 C59.4728853,117.049724 59.3372566,117.097972 59.2406577,117.194227 C59.0574613,117.376846 59.0450206,117.651378 59.1886992,117.845094 L60.2188433,119.232469 L63.4958871,123.646691 L64.5909184,125.121395 C64.6862976,125.250217 64.838514,125.325967 65.0002439,125.325967 C65.1617299,125.325967 65.3134585,125.250217 65.4090816,125.121395 L70.8113008,117.845094 C70.9549794,117.651378 70.9425387,117.376846 70.7593423,117.194227" id="Fill-73" fill="#E5E9F2"></path>
                <path d="M101.486615,117.194227 C101.390016,117.097972 101.254144,117.049724 101.117051,117.049724 L90.3374943,117.049724 C90.200158,117.049724 90.0645293,117.097972 89.9679304,117.194227 C89.784734,117.376846 89.7722933,117.651378 89.9159719,117.845094 L90.946116,119.232469 L94.2231599,123.646691 L95.3181911,125.121395 C95.4135703,125.250217 95.5657867,125.325967 95.7275167,125.325967 C95.8890027,125.325967 96.0407312,125.250217 96.1363543,125.121395 L101.538574,117.845094 C101.682252,117.651378 101.669811,117.376846 101.486615,117.194227" id="Fill-75" fill="#E5E9F2"></path>
                <path d="M131.03207,117.194227 C130.935471,117.097972 130.799598,117.049724 130.662506,117.049724 L119.882949,117.049724 C119.745613,117.049724 119.609984,117.097972 119.513385,117.194227 C119.330189,117.376846 119.317748,117.651378 119.461426,117.845094 L120.491571,119.232469 L123.768614,123.646691 L124.863646,125.121395 C124.959269,125.250217 125.111241,125.325967 125.272971,125.325967 C125.434457,125.325967 125.586186,125.250217 125.681809,125.121395 L131.084028,117.845094 C131.227707,117.651378 131.215266,117.376846 131.03207,117.194227" id="Fill-77" fill="#E5E9F2"></path>
                <path d="M160.577524,117.194227 C160.480925,117.097972 160.345053,117.049724 160.20796,117.049724 L149.428403,117.049724 C149.291067,117.049724 149.155438,117.097972 149.058839,117.194227 C148.875643,117.376846 148.863202,117.651378 149.006881,117.845094 L150.037025,119.232469 L153.314069,123.646691 L154.4091,125.121395 C154.504479,125.250217 154.656696,125.325967 154.818426,125.325967 C154.979912,125.325967 155.131884,125.250217 155.227263,125.121395 L160.629483,117.845094 C160.773161,117.651378 160.760721,117.376846 160.577524,117.194227" id="Fill-79" fill="#E5E9F2"></path>
                <path d="M191.304797,117.194227 C191.208198,117.097972 191.072569,117.049724 190.935233,117.049724 L180.155676,117.049724 C180.01834,117.049724 179.882711,117.097972 179.786112,117.194227 C179.602916,117.376846 179.590475,117.651378 179.734154,117.845094 L180.764298,119.232469 L184.041342,123.646691 L185.136373,125.121395 C185.231752,125.250217 185.383969,125.325967 185.545698,125.325967 C185.707184,125.325967 185.859157,125.250217 185.954536,125.121395 L191.356755,117.845094 C191.500434,117.651378 191.487993,117.376846 191.304797,117.194227" id="Fill-81" fill="#E5E9F2"></path>
                <g id="Group-85" transform="translate(209.181818, 117.049724)">
                    <mask id="mask-12" fill="white">
                        <use xlink:href="#path-11"></use>
                    </mask>
                    <g id="Clip-84"></g>
                    <path d="M11.5454712,0.330842818 C11.449961,0.239114457 11.3156197,0.193135328 11.1798312,0.193135328 L0.522001855,0.193135328 C0.386213358,0.193135328 0.252113173,0.239114457 0.156361781,0.330842818 C-0.024528757,0.504873818 -0.0370705009,0.766495058 0.105230056,0.951101258 L1.12352319,2.27323109 L1.12376438,2.27323109 L4.3638757,6.47986154 L5.44656586,7.8852136 C5.54087013,8.00797787 5.69137106,8.0801651 5.85103711,8.0801651 C6.01070315,8.0801651 6.16096289,8.00797787 6.25550835,7.8852136 L11.5968442,0.951101258 C11.7389035,0.766495058 11.726603,0.504873818 11.5454712,0.330842818" id="Fill-83" fill="#E5E9F2" mask="url(#mask-12)"></path>
                </g>
                <path d="M11.6684335,145.569918 C11.5718348,145.473662 11.4359624,145.425414 11.2986264,145.425414 L0.519333838,145.425414 C0.381997811,145.425414 0.246369336,145.473662 0.149526703,145.569918 C-0.0334253761,145.752537 -0.0458661175,146.027069 0.0978122483,146.220785 L1.12795442,147.60816 L4.40499205,152.022381 L5.50002123,153.497085 C5.59540025,153.625908 5.74761637,153.701657 5.90910208,153.701657 C6.07083171,153.701657 6.22255997,153.625908 6.31818292,153.497085 L11.7203919,146.220785 C11.8640703,146.027069 11.8516295,145.752537 11.6684335,145.569918" id="Fill-86" fill="#E5E9F2"></path>
                <path d="M41.2138878,145.569918 C41.1172889,145.473662 40.9814162,145.425414 40.8440799,145.425414 L30.064767,145.425414 C29.9274307,145.425414 29.791802,145.473662 29.6952031,145.569918 C29.5120068,145.752537 29.499566,146.027069 29.6432446,146.220785 L30.6733888,147.60816 L33.9504326,152.022381 L35.0454638,153.497085 C35.140843,153.625908 35.2930594,153.701657 35.4547894,153.701657 C35.6162754,153.701657 35.7680039,153.625908 35.8636271,153.497085 L41.2658463,146.220785 C41.4095249,146.027069 41.3970841,145.752537 41.2138878,145.569918" id="Fill-88" fill="#E5E9F2"></path>
                <path d="M70.7593423,145.569918 C70.6627434,145.473662 70.5268708,145.425414 70.3897784,145.425414 L59.6102216,145.425414 C59.4728853,145.425414 59.3372566,145.473662 59.2406577,145.569918 C59.0574613,145.752537 59.0450206,146.027069 59.1886992,146.220785 L60.2188433,147.60816 L63.4958871,152.022381 L64.5909184,153.497085 C64.6862976,153.625908 64.838514,153.701657 65.0002439,153.701657 C65.1617299,153.701657 65.3134585,153.625908 65.4090816,153.497085 L70.8113008,146.220785 C70.9549794,146.027069 70.9425387,145.752537 70.7593423,145.569918" id="Fill-90" fill="#E5E9F2"></path>
                <path d="M101.486615,145.569918 C101.390016,145.473662 101.254144,145.425414 101.117051,145.425414 L90.3374943,145.425414 C90.200158,145.425414 90.0645293,145.473662 89.9679304,145.569918 C89.784734,145.752537 89.7722933,146.027069 89.9159719,146.220785 L90.946116,147.60816 L94.2231599,152.022381 L95.3181911,153.497085 C95.4135703,153.625908 95.5657867,153.701657 95.7275167,153.701657 C95.8890027,153.701657 96.0407312,153.625908 96.1363543,153.497085 L101.538574,146.220785 C101.682252,146.027069 101.669811,145.752537 101.486615,145.569918" id="Fill-92" fill="#E5E9F2"></path>
                <path d="M131.03207,145.569918 C130.935471,145.473662 130.799598,145.425414 130.662506,145.425414 L119.882949,145.425414 C119.745613,145.425414 119.609984,145.473662 119.513385,145.569918 C119.330189,145.752537 119.317748,146.027069 119.461426,146.220785 L120.491571,147.60816 L123.768614,152.022381 L124.863646,153.497085 C124.959269,153.625908 125.111241,153.701657 125.272971,153.701657 C125.434457,153.701657 125.586186,153.625908 125.681809,153.497085 L131.084028,146.220785 C131.227707,146.027069 131.215266,145.752537 131.03207,145.569918" id="Fill-94" fill="#E5E9F2"></path>
                <path d="M160.577524,145.569918 C160.480925,145.473662 160.345053,145.425414 160.20796,145.425414 L149.428403,145.425414 C149.291067,145.425414 149.155438,145.473662 149.058839,145.569918 C148.875643,145.752537 148.863202,146.027069 149.006881,146.220785 L150.037025,147.60816 L153.314069,152.022381 L154.4091,153.497085 C154.504479,153.625908 154.656696,153.701657 154.818426,153.701657 C154.979912,153.701657 155.131884,153.625908 155.227263,153.497085 L160.629483,146.220785 C160.773161,146.027069 160.760721,145.752537 160.577524,145.569918" id="Fill-96" fill="#E5E9F2"></path>
                <path d="M191.304797,145.569918 C191.208198,145.473662 191.072569,145.425414 190.935233,145.425414 L180.155676,145.425414 C180.01834,145.425414 179.882711,145.473662 179.786112,145.569918 C179.602916,145.752537 179.590475,146.027069 179.734154,146.220785 L180.764298,147.60816 L184.041342,152.022381 L185.136373,153.497085 C185.231752,153.625908 185.383969,153.701657 185.545698,153.701657 C185.707184,153.701657 185.859157,153.625908 185.954536,153.497085 L191.356755,146.220785 C191.500434,146.027069 191.487993,145.752537 191.304797,145.569918" id="Fill-98" fill="#E5E9F2"></path>
                <g id="Group-102" transform="translate(209.181818, 145.425414)">
                    <mask id="mask-14" fill="white">
                        <use xlink:href="#path-13"></use>
                    </mask>
                    <g id="Clip-101"></g>
                    <path d="M11.5454712,0.171034475 C11.449961,0.0766853039 11.3156197,0.0293924862 11.1798312,0.0293924862 L0.522001855,0.0293924862 C0.386213358,0.0293924862 0.252113173,0.0766853039 0.156361781,0.171034475 C-0.024528757,0.35003779 -0.0370705009,0.619133923 0.105230056,0.809014586 L1.12352319,2.16891956 L1.12376438,2.16891956 L4.3638757,6.49573945 L5.44656586,7.94124442 C5.54087013,8.06751624 5.69137106,8.14176597 5.85103711,8.14176597 C6.01070315,8.14176597 6.16096289,8.06751624 6.25550835,7.94124442 L11.5968442,0.809014586 C11.7389035,0.619133923 11.726603,0.35003779 11.5454712,0.171034475" id="Fill-100" fill="#E5E9F2" mask="url(#mask-14)"></path>
                </g>
                <path d="M11.6684335,176.310249 C11.5718348,176.213753 11.4359624,176.165746 11.2986264,176.165746 L0.519333838,176.165746 C0.381997811,176.165746 0.246369336,176.213753 0.149526703,176.310249 C-0.0334253761,176.492868 -0.0458661175,176.7674 0.0978122483,176.961116 L1.12795442,178.348491 L4.40499205,182.762713 L5.50002123,184.237417 C5.59540025,184.366239 5.74761637,184.441989 5.90910208,184.441989 C6.07083171,184.441989 6.22255997,184.366239 6.31818292,184.237417 L11.7203919,176.961116 C11.8640703,176.7674 11.8516295,176.492868 11.6684335,176.310249" id="Fill-103" fill="#E5E9F2"></path>
                <path d="M41.2138878,176.310249 C41.1172889,176.213753 40.9814162,176.165746 40.8440799,176.165746 L30.064767,176.165746 C29.9274307,176.165746 29.791802,176.213753 29.6952031,176.310249 C29.5120068,176.492868 29.499566,176.7674 29.6432446,176.961116 L30.6733888,178.348491 L33.9504326,182.762713 L35.0454638,184.237417 C35.140843,184.366239 35.2930594,184.441989 35.4547894,184.441989 C35.6162754,184.441989 35.7680039,184.366239 35.8636271,184.237417 L41.2658463,176.961116 C41.4095249,176.7674 41.3970841,176.492868 41.2138878,176.310249" id="Fill-105" fill="#E5E9F2"></path>
                <path d="M70.7593423,176.310249 C70.6627434,176.213753 70.5268708,176.165746 70.3897784,176.165746 L59.6102216,176.165746 C59.4728853,176.165746 59.3372566,176.213753 59.2406577,176.310249 C59.0574613,176.492868 59.0450206,176.7674 59.1886992,176.961116 L60.2188433,178.348491 L63.4958871,182.762713 L64.5909184,184.237417 C64.6862976,184.366239 64.838514,184.441989 65.0002439,184.441989 C65.1617299,184.441989 65.3134585,184.366239 65.4090816,184.237417 L70.8113008,176.961116 C70.9549794,176.7674 70.9425387,176.492868 70.7593423,176.310249" id="Fill-107" fill="#E5E9F2"></path>
                <path d="M101.486615,176.310249 C101.390016,176.213753 101.254144,176.165746 101.117051,176.165746 L90.3374943,176.165746 C90.200158,176.165746 90.0645293,176.213753 89.9679304,176.310249 C89.784734,176.492868 89.7722933,176.7674 89.9159719,176.961116 L90.946116,178.348491 L94.2231599,182.762713 L95.3181911,184.237417 C95.4135703,184.366239 95.5657867,184.441989 95.7275167,184.441989 C95.8890027,184.441989 96.0407312,184.366239 96.1363543,184.237417 L101.538574,176.961116 C101.682252,176.7674 101.669811,176.492868 101.486615,176.310249" id="Fill-109" fill="#E5E9F2"></path>
                <path d="M131.03207,176.310249 C130.935471,176.213753 130.799598,176.165746 130.662506,176.165746 L119.882949,176.165746 C119.745613,176.165746 119.609984,176.213753 119.513385,176.310249 C119.330189,176.492868 119.317748,176.7674 119.461426,176.961116 L120.491571,178.348491 L123.768614,182.762713 L124.863646,184.237417 C124.959269,184.366239 125.111241,184.441989 125.272971,184.441989 C125.434457,184.441989 125.586186,184.366239 125.681809,184.237417 L131.084028,176.961116 C131.227707,176.7674 131.215266,176.492868 131.03207,176.310249" id="Fill-111" fill="#E5E9F2"></path>
                <path d="M160.577524,176.310249 C160.480925,176.213753 160.345053,176.165746 160.20796,176.165746 L149.428403,176.165746 C149.291067,176.165746 149.155438,176.213753 149.058839,176.310249 C148.875643,176.492868 148.863202,176.7674 149.006881,176.961116 L150.037025,178.348491 L153.314069,182.762713 L154.4091,184.237417 C154.504479,184.366239 154.656696,184.441989 154.818426,184.441989 C154.979912,184.441989 155.131884,184.366239 155.227263,184.237417 L160.629483,176.961116 C160.773161,176.7674 160.760721,176.492868 160.577524,176.310249" id="Fill-113" fill="#E5E9F2"></path>
                <path d="M191.304797,176.310249 C191.208198,176.213753 191.072569,176.165746 190.935233,176.165746 L180.155676,176.165746 C180.01834,176.165746 179.882711,176.213753 179.786112,176.310249 C179.602916,176.492868 179.590475,176.7674 179.734154,176.961116 L180.764298,178.348491 L184.041342,182.762713 L185.136373,184.237417 C185.231752,184.366239 185.383969,184.441989 185.545698,184.441989 C185.707184,184.441989 185.859157,184.366239 185.954536,184.237417 L191.356755,176.961116 C191.500434,176.7674 191.487993,176.492868 191.304797,176.310249" id="Fill-115" fill="#E5E9F2"></path>
                <g id="Group-119" transform="translate(209.181818, 176.165746)">
                    <mask id="mask-16" fill="white">
                        <use xlink:href="#path-15"></use>
                    </mask>
                    <g id="Clip-118"></g>
                    <path d="M11.5454712,0.238213923 C11.449961,0.143628287 11.3156197,0.0965719337 11.1798312,0.0965719337 L0.522001855,0.0965719337 C0.386213358,0.0965719337 0.252113173,0.143628287 0.156361781,0.238213923 C-0.024528757,0.417217238 -0.0370705009,0.68631337 0.105230056,0.876194033 L1.12352319,2.23609901 L1.12376438,2.23609901 L4.3638757,6.5629189 L5.44656586,8.00842387 C5.54087013,8.13469569 5.69137106,8.20894541 5.85103711,8.20894541 C6.01070315,8.20894541 6.16096289,8.13469569 6.25550835,8.00842387 L11.5968442,0.876194033 C11.7389035,0.68631337 11.726603,0.417217238 11.5454712,0.238213923" id="Fill-117" fill="#E5E9F2" mask="url(#mask-16)"></path>
                </g>
                <path d="M11.6684335,205.86826 C11.5718348,205.771764 11.4359624,205.723757 11.2986264,205.723757 L0.519333838,205.723757 C0.381997811,205.723757 0.246369336,205.771764 0.149526703,205.86826 C-0.0334253761,206.050879 -0.0458661175,206.325411 0.0978122483,206.519127 L1.12795442,207.906502 L4.40499205,212.320724 L5.50002123,213.795428 C5.59540025,213.92425 5.74761637,214 5.90910208,214 C6.07083171,214 6.22255997,213.92425 6.31818292,213.795428 L11.7203919,206.519127 C11.8640703,206.325411 11.8516295,206.050879 11.6684335,205.86826" id="Fill-120" fill="#E5E9F2"></path>
                <path d="M41.2138878,205.86826 C41.1172889,205.771764 40.9814162,205.723757 40.8440799,205.723757 L30.064767,205.723757 C29.9274307,205.723757 29.791802,205.771764 29.6952031,205.86826 C29.5120068,206.050879 29.499566,206.325411 29.6432446,206.519127 L30.6733888,207.906502 L33.9504326,212.320724 L35.0454638,213.795428 C35.140843,213.92425 35.2930594,214 35.4547894,214 C35.6162754,214 35.7680039,213.92425 35.8636271,213.795428 L41.2658463,206.519127 C41.4095249,206.325411 41.3970841,206.050879 41.2138878,205.86826" id="Fill-122" fill="#E5E9F2"></path>
                <path d="M70.7593423,205.86826 C70.6627434,205.771764 70.5268708,205.723757 70.3897784,205.723757 L59.6102216,205.723757 C59.4728853,205.723757 59.3372566,205.771764 59.2406577,205.86826 C59.0574613,206.050879 59.0450206,206.325411 59.1886992,206.519127 L60.2188433,207.906502 L63.4958871,212.320724 L64.5909184,213.795428 C64.6862976,213.92425 64.838514,214 65.0002439,214 C65.1617299,214 65.3134585,213.92425 65.4090816,213.795428 L70.8113008,206.519127 C70.9549794,206.325411 70.9425387,206.050879 70.7593423,205.86826" id="Fill-124" fill="#E5E9F2"></path>
                <path d="M101.486615,205.86826 C101.390016,205.771764 101.254144,205.723757 101.117051,205.723757 L90.3374943,205.723757 C90.200158,205.723757 90.0645293,205.771764 89.9679304,205.86826 C89.784734,206.050879 89.7722933,206.325411 89.9159719,206.519127 L90.946116,207.906502 L94.2231599,212.320724 L95.3181911,213.795428 C95.4135703,213.92425 95.5657867,214 95.7275167,214 C95.8890027,214 96.0407312,213.92425 96.1363543,213.795428 L101.538574,206.519127 C101.682252,206.325411 101.669811,206.050879 101.486615,205.86826" id="Fill-126" fill="#E5E9F2"></path>
                <path d="M131.03207,205.86826 C130.935471,205.771764 130.799598,205.723757 130.662506,205.723757 L119.882949,205.723757 C119.745613,205.723757 119.609984,205.771764 119.513385,205.86826 C119.330189,206.050879 119.317748,206.325411 119.461426,206.519127 L120.491571,207.906502 L123.768614,212.320724 L124.863646,213.795428 C124.959269,213.92425 125.111241,214 125.272971,214 C125.434457,214 125.586186,213.92425 125.681809,213.795428 L131.084028,206.519127 C131.227707,206.325411 131.215266,206.050879 131.03207,205.86826" id="Fill-128" fill="#E5E9F2"></path>
                <path d="M160.577524,205.86826 C160.480925,205.771764 160.345053,205.723757 160.20796,205.723757 L149.428403,205.723757 C149.291067,205.723757 149.155438,205.771764 149.058839,205.86826 C148.875643,206.050879 148.863202,206.325411 149.006881,206.519127 L150.037025,207.906502 L153.314069,212.320724 L154.4091,213.795428 C154.504479,213.92425 154.656696,214 154.818426,214 C154.979912,214 155.131884,213.92425 155.227263,213.795428 L160.629483,206.519127 C160.773161,206.325411 160.760721,206.050879 160.577524,205.86826" id="Fill-130" fill="#E5E9F2"></path>
                <path d="M191.304797,205.86826 C191.208198,205.771764 191.072569,205.723757 190.935233,205.723757 L180.155676,205.723757 C180.01834,205.723757 179.882711,205.771764 179.786112,205.86826 C179.602916,206.050879 179.590475,206.325411 179.734154,206.519127 L180.764298,207.906502 L184.041342,212.320724 L185.136373,213.795428 C185.231752,213.92425 185.383969,214 185.545698,214 C185.707184,214 185.859157,213.92425 185.954536,213.795428 L191.356755,206.519127 C191.500434,206.325411 191.487993,206.050879 191.304797,205.86826" id="Fill-132" fill="#E5E9F2"></path>
                <g id="Group-136" transform="translate(209.181818, 205.723757)">
                    <mask id="mask-18" fill="white">
                        <use xlink:href="#path-17"></use>
                    </mask>
                    <g id="Clip-135"></g>
                    <path d="M11.5454712,0.305417017 C11.449961,0.210831381 11.3156197,0.163775028 11.1798312,0.163775028 L0.522001855,0.163775028 C0.386213358,0.163775028 0.252113173,0.210831381 0.156361781,0.305417017 C-0.024528757,0.484420331 -0.0370705009,0.753516464 0.105230056,0.943397127 L1.12352319,2.3033021 L1.12376438,2.3033021 L4.3638757,6.63012199 L5.44656586,8.07562696 C5.54087013,8.20189878 5.69137106,8.27614851 5.85103711,8.27614851 C6.01070315,8.27614851 6.16096289,8.20189878 6.25550835,8.07562696 L11.5968442,0.943397127 C11.7389035,0.753516464 11.726603,0.484420331 11.5454712,0.305417017" id="Fill-134" fill="#E5E9F2" mask="url(#mask-18)"></path>
                </g>
            </g>
        </g>
    </g>
</svg>
